<?xml version="1.0" encoding="UTF-8"?>
<svg xmlns="http://www.w3.org/2000/svg" xmlns:xlink="http://www.w3.org/1999/xlink" width="150px" height="150px" viewBox="0 0 150 150" version="1.1">
<g id="surface1">
<path style=" stroke:none;fill-rule:nonzero;fill:rgb(100%,100%,100%);fill-opacity:1;" d="M 75 0.976562 C 34.144531 0.976562 0.976562 34.144531 0.976562 75 C 0.976562 115.855469 34.085938 149.023438 75 149.023438 C 115.914062 149.023438 149.023438 115.914062 149.023438 75 C 149.023438 34.085938 115.855469 0.976562 75 0.976562 Z M 120.304688 120.304688 C 114.453125 126.160156 107.5625 130.792969 99.9375 134.023438 C 92.011719 137.378906 83.660156 139.085938 75 139.085938 C 66.339844 139.085938 57.988281 137.378906 50.0625 134.023438 C 42.4375 130.792969 35.546875 126.160156 29.695312 120.304688 C 23.839844 114.453125 19.207031 107.5625 15.976562 99.9375 C 12.621094 92.011719 10.914062 83.660156 10.914062 75 C 10.914062 66.339844 12.621094 57.988281 15.976562 50.0625 C 19.207031 42.4375 23.839844 35.546875 29.695312 29.695312 C 35.546875 23.839844 42.4375 19.207031 50.0625 15.976562 C 57.988281 12.621094 66.339844 10.914062 75 10.914062 C 83.660156 10.914062 92.011719 12.621094 99.9375 15.976562 C 107.5625 19.207031 114.453125 23.839844 120.304688 29.695312 C 126.160156 35.546875 130.792969 42.4375 134.023438 50.0625 C 137.378906 57.988281 139.085938 66.339844 139.085938 75 C 139.085938 83.660156 137.378906 92.011719 134.023438 99.9375 C 130.792969 107.5625 126.160156 114.453125 120.304688 120.304688 Z M 120.304688 120.304688 "/>
<path style=" stroke:none;fill-rule:nonzero;fill:rgb(100%,100%,100%);fill-opacity:1;" d="M 95 68.660156 L 120.488281 43.171875 C 110.425781 28.839844 93.78125 19.453125 75 19.453125 C 56.21875 19.453125 39.511719 28.839844 29.511719 43.171875 L 55 68.660156 C 66.035156 79.695312 84.023438 79.695312 95.0625 68.660156 Z M 95 68.660156 "/>
<path style=" stroke:none;fill-rule:nonzero;fill:rgb(100%,100%,100%);fill-opacity:1;" d="M 25 50.730469 C 21.402344 58.046875 19.453125 66.28125 19.453125 75 C 19.453125 83.71875 20.609375 87.804688 22.621094 93.597656 L 45.183594 70.914062 Z M 25 50.730469 "/>
<path style=" stroke:none;fill-rule:nonzero;fill:rgb(100%,100%,100%);fill-opacity:1;" d="M 127.316406 93.660156 C 129.390625 87.804688 130.546875 81.585938 130.546875 75 C 130.546875 68.414062 128.535156 58.046875 125 50.730469 L 104.757812 70.976562 L 127.378906 93.597656 Z M 127.316406 93.660156 "/>
<path style=" stroke:none;fill-rule:nonzero;fill:rgb(100%,100%,100%);fill-opacity:1;" d="M 123.597656 101.953125 L 98.597656 76.953125 C 92.011719 82.4375 83.78125 85.425781 75 85.425781 C 66.21875 85.425781 57.925781 82.378906 51.339844 76.828125 L 26.402344 101.890625 C 35.855469 118.964844 54.085938 130.546875 75 130.546875 C 95.914062 130.546875 114.144531 119.023438 123.597656 101.953125 Z M 123.597656 101.953125 "/>
</g>
</svg>
