<?xml version="1.0" encoding="UTF-8"?>
<svg xmlns="http://www.w3.org/2000/svg" xmlns:xlink="http://www.w3.org/1999/xlink" width="150px" height="150px" viewBox="0 0 150 150" version="1.1">
<g id="surface1">
<path style=" stroke:none;fill-rule:nonzero;fill:rgb(23.137255%,29.411766%,33.725491%);fill-opacity:1;" d="M 75 0.976562 C 34.144531 0.976562 0.976562 34.144531 0.976562 75 C 0.976562 115.855469 34.085938 149.023438 75 149.023438 C 115.914062 149.023438 149.023438 115.914062 149.023438 75 C 149.023438 34.085938 115.855469 0.976562 75 0.976562 Z M 75 132.683594 C 43.171875 132.683594 17.316406 106.828125 17.316406 75 C 17.316406 43.171875 43.171875 17.316406 75 17.316406 C 106.828125 17.316406 132.683594 43.171875 132.683594 75 C 132.683594 106.828125 106.828125 132.683594 75 132.683594 Z M 75 132.683594 "/>
<path style=" stroke:none;fill-rule:nonzero;fill:rgb(100%,100%,100%);fill-opacity:1;" d="M 134.023438 50.0625 C 130.792969 42.4375 126.160156 35.546875 120.304688 29.695312 C 114.453125 23.839844 107.5625 19.207031 99.9375 15.976562 C 92.011719 12.621094 83.660156 10.914062 75 10.914062 C 66.339844 10.914062 57.988281 12.621094 50.0625 15.976562 C 42.4375 19.207031 35.546875 23.839844 29.695312 29.695312 C 23.839844 35.546875 19.207031 42.4375 15.976562 50.0625 C 12.621094 57.988281 10.914062 66.339844 10.914062 75 C 10.914062 83.660156 12.621094 92.011719 15.976562 99.9375 C 19.207031 107.5625 23.839844 114.453125 29.695312 120.304688 C 35.546875 126.160156 42.4375 130.792969 50.0625 134.023438 C 57.988281 137.378906 66.339844 139.085938 75 139.085938 C 83.660156 139.085938 92.011719 137.378906 99.9375 134.023438 C 107.5625 130.792969 114.453125 126.160156 120.304688 120.304688 C 126.160156 114.453125 130.792969 107.5625 134.023438 99.9375 C 137.378906 92.011719 139.085938 83.660156 139.085938 75 C 139.085938 66.339844 137.378906 57.988281 134.023438 50.0625 Z M 127.316406 93.660156 L 104.695312 71.035156 L 124.9375 50.792969 C 128.535156 58.109375 130.488281 66.339844 130.488281 75.0625 C 130.488281 83.78125 129.328125 87.867188 127.257812 93.71875 Z M 125 50.730469 C 124.695312 50.0625 124.328125 49.453125 124.023438 48.78125 C 124.390625 49.453125 124.695312 50.0625 125 50.730469 Z M 123.964844 48.71875 C 123.597656 48.109375 123.292969 47.5 122.925781 46.828125 C 123.292969 47.4375 123.660156 48.046875 123.964844 48.71875 Z M 122.867188 46.769531 C 122.132812 45.546875 121.339844 44.328125 120.546875 43.109375 C 121.402344 44.269531 122.132812 45.488281 122.867188 46.769531 Z M 75 19.453125 C 93.839844 19.453125 110.488281 28.839844 120.488281 43.171875 L 95 68.660156 C 83.964844 79.695312 65.976562 79.695312 54.9375 68.660156 L 29.453125 43.171875 C 39.511719 28.839844 56.160156 19.453125 74.9375 19.453125 Z M 29.511719 43.109375 C 28.660156 44.269531 27.925781 45.488281 27.195312 46.769531 C 27.925781 45.546875 28.71875 44.328125 29.511719 43.109375 Z M 27.074219 46.890625 C 26.707031 47.5 26.339844 48.109375 26.035156 48.78125 C 26.402344 48.171875 26.707031 47.5625 27.074219 46.890625 Z M 26.035156 48.78125 C 25.671875 49.453125 25.367188 50.0625 25.0625 50.730469 C 25.367188 50.0625 25.730469 49.453125 26.035156 48.78125 Z M 25 50.730469 L 45.183594 70.914062 L 22.621094 93.597656 C 20.546875 87.804688 19.453125 81.523438 19.453125 75 C 19.453125 68.476562 21.464844 58.046875 25 50.730469 Z M 75 130.546875 C 54.085938 130.546875 35.855469 118.964844 26.402344 101.890625 L 51.339844 76.828125 C 57.925781 82.378906 66.21875 85.425781 75 85.425781 C 83.78125 85.425781 92.011719 82.4375 98.597656 76.953125 L 123.597656 101.953125 C 114.144531 119.023438 95.914062 130.546875 75 130.546875 Z M 75 130.546875 "/>
<path style=" stroke:none;fill-rule:nonzero;fill:rgb(100%,43.137255%,47.450981%);fill-opacity:1;" d="M 95 68.660156 L 120.488281 43.171875 C 110.425781 28.839844 93.78125 19.453125 75 19.453125 C 56.21875 19.453125 39.511719 28.839844 29.511719 43.171875 L 55 68.660156 C 66.035156 79.695312 84.023438 79.695312 95.0625 68.660156 Z M 95 68.660156 "/>
<path style=" stroke:none;fill-rule:nonzero;fill:rgb(23.137255%,29.411766%,33.725491%);fill-opacity:1;" d="M 25 50.730469 C 21.402344 58.046875 19.453125 66.28125 19.453125 75 C 19.453125 83.71875 20.609375 87.804688 22.621094 93.597656 L 45.183594 70.914062 Z M 25 50.730469 "/>
<path style=" stroke:none;fill-rule:nonzero;fill:rgb(23.137255%,29.411766%,33.725491%);fill-opacity:1;" d="M 127.316406 93.660156 C 129.390625 87.804688 130.546875 81.585938 130.546875 75 C 130.546875 68.414062 128.535156 58.046875 125 50.730469 L 104.757812 70.976562 L 127.378906 93.597656 Z M 127.316406 93.660156 "/>
<path style=" stroke:none;fill-rule:nonzero;fill:rgb(23.137255%,29.411766%,33.725491%);fill-opacity:1;" d="M 123.597656 101.953125 L 98.597656 76.953125 C 92.011719 82.4375 83.78125 85.425781 75 85.425781 C 66.21875 85.425781 57.925781 82.378906 51.339844 76.828125 L 26.402344 101.890625 C 35.855469 118.964844 54.085938 130.546875 75 130.546875 C 95.914062 130.546875 114.144531 119.023438 123.597656 101.953125 Z M 123.597656 101.953125 "/>
</g>
</svg>
