<?xml version="1.0" encoding="utf-8"?>
<!-- Generator: Adobe Illustrator 27.8.0, SVG Export Plug-In . SVG Version: 6.00 Build 0)  -->
<!DOCTYPE svg PUBLIC "-//W3C//DTD SVG 1.1//EN" "http://www.w3.org/Graphics/SVG/1.1/DTD/svg11.dtd" [
	<!ENTITY ns_extend "http://ns.adobe.com/Extensibility/1.0/">
	<!ENTITY ns_ai "http://ns.adobe.com/AdobeIllustrator/10.0/">
	<!ENTITY ns_graphs "http://ns.adobe.com/Graphs/1.0/">
	<!ENTITY ns_vars "http://ns.adobe.com/Variables/1.0/">
	<!ENTITY ns_imrep "http://ns.adobe.com/ImageReplacement/1.0/">
	<!ENTITY ns_sfw "http://ns.adobe.com/SaveForWeb/1.0/">
	<!ENTITY ns_custom "http://ns.adobe.com/GenericCustomNamespace/1.0/">
	<!ENTITY ns_adobe_xpath "http://ns.adobe.com/XPath/1.0/">
]>
<svg version="1.1" id="Layer_1" xmlns:x="&ns_extend;" xmlns:i="&ns_ai;" xmlns:graph="&ns_graphs;"
	 xmlns="http://www.w3.org/2000/svg" xmlns:xlink="http://www.w3.org/1999/xlink" x="0px" y="0px" viewBox="0 0 189.73 189.7"
	 enable-background="new 0 0 189.73 189.7" xml:space="preserve">
<metadata>
	<sfw  xmlns="&ns_sfw;">
		<slices></slices>
		<sliceSourceBounds  bottomLeftOrigin="true" height="189.7" width="189.73" x="326.38" y="-392.69"></sliceSourceBounds>
	</sfw>
</metadata>
<g>
	<g>
		
			<linearGradient id="SVGID_1_" gradientUnits="userSpaceOnUse" x1="41.7175" y1="410.856" x2="148.7186" y2="596.1871" gradientTransform="matrix(1 0 0 1 0 -408.8823)">
			<stop  offset="0.1672" style="stop-color:#497EBD"/>
			<stop  offset="0.8374" style="stop-color:#325490"/>
		</linearGradient>
		<path fill="url(#SVGID_1_)" d="M119.6,104.55c-0.5-0.5-1.1-1.1-1.7-1.7c-6,4.6-12,9.1-17.9,13.7c-4.4,3.3-8.9,7.9-14.7,4.1
			c-6.8-5.1-13.5-10.3-20.3-15.4c-1-0.8-2-1.6-3.1-2.3c-0.5,0.5-1.1,1.1-1.6,1.7c-13.8,14.7-27.5,29.3-41.3,44
			c-2.3,2.4-4.6,4.9-6.9,7.3l124,33.2c8.6,2.3,17.4-2.8,19.7-11.4l7.2-26.9c-8.3-8.8-16.6-17.7-24.9-26.5
			C132,117.75,125.8,111.15,119.6,104.55z M91.6,81.65c2.1,1.6,4.1,3.1,6.2,4.7c0.7,0.5,2.3,1.3,1.7,1.8
			c24.4-18.6,48.8-37.1,73.3-55.7L53.6,0.55c-8.6-2.3-17.4,2.8-19.7,11.4l-5.8,21.5c14.2,10.8,28.5,21.7,42.8,32.5
			C77.7,71.05,84.7,76.35,91.6,81.65z M189.7,48.35c-0.6,0.5-1.2,0.9-1.8,1.4c-6.4,4.8-12.7,9.7-19,14.5
			c-7.8,5.9-15.6,11.9-23.4,17.8c1.3,1.4,2.6,2.7,3.8,4.1c8.1,8.6,16.2,17.2,24.2,25.8l15.7-58.5
			C189.6,51.75,189.8,50.05,189.7,48.35z M45.9,90.75c-9.2-7-18.4-14-27.6-21l-17.8,66.3c-0.3,1.2-0.5,2.4-0.5,3.6
			c0.5-0.5,1-1,1.5-1.6c9.2-9.8,18.5-19.6,27.7-29.5C34.7,102.65,40.3,96.65,45.9,90.75z"/>
	</g>
</g>
</svg>
